<svg xmlns="http://www.w3.org/2000/svg">
  <defs>
    <symbol id="menu" viewBox="0 0 24 24">
      <line x1="3" y1="12" x2="21" y2="12"></line>
      <line x1="3" y1="6" x2="21" y2="6"></line>
      <line x1="3" y1="18" x2="21" y2="18"></line>
    </symbol>
  </defs>
  <symbol id="chevrons-down" viewBox="0 0 24 24">
    <polyline points="7 13 12 18 17 13"></polyline>
    <polyline points="7 6 12 11 17 6"></polyline>
  </symbol>
  <symbol id="alert-triangle" viewBox="0 0 24 24">
    <path d="M10.29 3.86L1.82 18a2 2 0 0 0 1.71 3h16.94a2 2 0 0 0 1.71-3L13.71 3.86a2 2 0 0 0-3.42 0z"></path>
    <line x1="12" y1="9" x2="12" y2="13"></line>
    <line x1="12" y1="17" x2="12.01" y2="17"></line>
  </symbol>
</svg>